<svg id="visual" viewBox="0 0 1200 300" width="1200" height="300" xmlns="http://www.w3.org/2000/svg" xmlns:xlink="http://www.w3.org/1999/xlink" version="1.1"><rect x="0" y="0" width="1200" height="300" fill="#f6f5f9"></rect><path d="M0 218L33.3 230.5C66.7 243 133.3 268 200 281.2C266.7 294.3 333.3 295.7 400 293.8C466.7 292 533.3 287 600 273.5C666.7 260 733.3 238 800 223.7C866.7 209.3 933.3 202.7 1000 207.7C1066.7 212.7 1133.3 229.3 1166.7 237.7L1200 246L1200 301L1166.7 301C1133.3 301 1066.7 301 1000 301C933.3 301 866.7 301 800 301C733.3 301 666.7 301 600 301C533.3 301 466.7 301 400 301C333.3 301 266.7 301 200 301C133.3 301 66.7 301 33.3 301L0 301Z" fill="#100e19" stroke-linecap="round" stroke-linejoin="miter"></path></svg>