<svg id="visual" viewBox="0 0 1200 300" width="1200" height="300" xmlns="http://www.w3.org/2000/svg" xmlns:xlink="http://www.w3.org/1999/xlink" version="1.1"><rect x="0" y="0" width="1200" height="300" fill="#100e19"></rect><path d="M0 98L33.3 89.7C66.7 81.3 133.3 64.7 200 53.5C266.7 42.3 333.3 36.7 400 46.7C466.7 56.7 533.3 82.3 600 96.8C666.7 111.3 733.3 114.7 800 108C866.7 101.3 933.3 84.7 1000 70.8C1066.7 57 1133.3 46 1166.7 40.5L1200 35L1200 301L1166.7 301C1133.3 301 1066.7 301 1000 301C933.3 301 866.7 301 800 301C733.3 301 666.7 301 600 301C533.3 301 466.7 301 400 301C333.3 301 266.7 301 200 301C133.3 301 66.7 301 33.3 301L0 301Z" fill="#ff6a00"></path><path d="M0 182L33.3 180.5C66.7 179 133.3 176 200 168.3C266.7 160.7 333.3 148.3 400 139C466.7 129.7 533.3 123.3 600 128.5C666.7 133.7 733.3 150.3 800 161.7C866.7 173 933.3 179 1000 171.5C1066.7 164 1133.3 143 1166.7 132.5L1200 122L1200 301L1166.7 301C1133.3 301 1066.7 301 1000 301C933.3 301 866.7 301 800 301C733.3 301 666.7 301 600 301C533.3 301 466.7 301 400 301C333.3 301 266.7 301 200 301C133.3 301 66.7 301 33.3 301L0 301Z" fill="#ff364a"></path><path d="M0 245L33.3 248.7C66.7 252.3 133.3 259.7 200 253.8C266.7 248 333.3 229 400 227.3C466.7 225.7 533.3 241.3 600 244.5C666.7 247.7 733.3 238.3 800 226.3C866.7 214.3 933.3 199.7 1000 194.7C1066.7 189.7 1133.3 194.3 1166.7 196.7L1200 199L1200 301L1166.7 301C1133.3 301 1066.7 301 1000 301C933.3 301 866.7 301 800 301C733.3 301 666.7 301 600 301C533.3 301 466.7 301 400 301C333.3 301 266.7 301 200 301C133.3 301 66.7 301 33.3 301L0 301Z" fill="#ee0979"></path></svg>