<svg id="visual" viewBox="0 0 3000 300" width="3000" height="300" xmlns="http://www.w3.org/2000/svg" xmlns:xlink="http://www.w3.org/1999/xlink" version="1.1"><rect x="0" y="0" width="3000" height="300" fill="#100e19"></rect><path d="M0 92L55.5 89.7C111 87.3 222 82.7 333.2 74.3C444.3 66 555.7 54 666.8 49.8C778 45.7 889 49.3 1000 60.7C1111 72 1222 91 1333.2 99.8C1444.3 108.7 1555.7 107.3 1666.8 99.8C1778 92.3 1889 78.7 2000 74.3C2111 70 2222 75 2333.2 82C2444.3 89 2555.7 98 2666.8 99.7C2778 101.3 2889 95.7 2944.5 92.8L3000 90L3000 301L2944.5 301C2889 301 2778 301 2666.8 301C2555.7 301 2444.3 301 2333.2 301C2222 301 2111 301 2000 301C1889 301 1778 301 1666.8 301C1555.7 301 1444.3 301 1333.2 301C1222 301 1111 301 1000 301C889 301 778 301 666.8 301C555.7 301 444.3 301 333.2 301C222 301 111 301 55.5 301L0 301Z" fill="#ff6a00"></path><path d="M0 147L55.5 151.8C111 156.7 222 166.3 333.2 163.3C444.3 160.3 555.7 144.7 666.8 135.8C778 127 889 125 1000 130C1111 135 1222 147 1333.2 152.8C1444.3 158.7 1555.7 158.3 1666.8 162C1778 165.7 1889 173.3 2000 173.8C2111 174.3 2222 167.7 2333.2 161.8C2444.3 156 2555.7 151 2666.8 143.5C2778 136 2889 126 2944.5 121L3000 116L3000 301L2944.5 301C2889 301 2778 301 2666.8 301C2555.7 301 2444.3 301 2333.2 301C2222 301 2111 301 2000 301C1889 301 1778 301 1666.8 301C1555.7 301 1444.3 301 1333.2 301C1222 301 1111 301 1000 301C889 301 778 301 666.8 301C555.7 301 444.3 301 333.2 301C222 301 111 301 55.5 301L0 301Z" fill="#ff364a"></path><path d="M0 240L55.5 235.2C111 230.3 222 220.7 333.2 217.7C444.3 214.7 555.7 218.3 666.8 223C778 227.7 889 233.3 1000 230C1111 226.7 1222 214.3 1333.2 213.8C1444.3 213.3 1555.7 224.7 1666.8 227.3C1778 230 1889 224 2000 216C2111 208 2222 198 2333.2 204.8C2444.3 211.7 2555.7 235.3 2666.8 236.7C2778 238 2889 217 2944.5 206.5L3000 196L3000 301L2944.5 301C2889 301 2778 301 2666.8 301C2555.7 301 2444.3 301 2333.2 301C2222 301 2111 301 2000 301C1889 301 1778 301 1666.8 301C1555.7 301 1444.3 301 1333.2 301C1222 301 1111 301 1000 301C889 301 778 301 666.8 301C555.7 301 444.3 301 333.2 301C222 301 111 301 55.5 301L0 301Z" fill="#ee0979"></path></svg>