<svg id="visual" viewBox="0 0 3000 300" width="3000" height="300" xmlns="http://www.w3.org/2000/svg" xmlns:xlink="http://www.w3.org/1999/xlink" version="1.1"><rect x="0" y="0" width="3000" height="300" fill="#f6f5f9"></rect><path d="M0 218L83.3 230.5C166.7 243 333.3 268 500 281.2C666.7 294.3 833.3 295.7 1000 293.8C1166.7 292 1333.3 287 1500 273.5C1666.7 260 1833.3 238 2000 223.7C2166.7 209.3 2333.3 202.7 2500 207.7C2666.7 212.7 2833.3 229.3 2916.7 237.7L3000 246L3000 301L2916.7 301C2833.3 301 2666.7 301 2500 301C2333.3 301 2166.7 301 2000 301C1833.3 301 1666.7 301 1500 301C1333.3 301 1166.7 301 1000 301C833.3 301 666.7 301 500 301C333.3 301 166.7 301 83.3 301L0 301Z" fill="#100e19" stroke-linecap="round" stroke-linejoin="miter"></path></svg>