<svg id="visual" viewBox="0 0 3000 300" width="3000" height="300" xmlns="http://www.w3.org/2000/svg" xmlns:xlink="http://www.w3.org/1999/xlink" version="1.1"><rect x="0" y="0" width="3000" height="300" fill="#f6f5f9"></rect><path d="M0 12L71.5 18.5C143 25 286 38 428.8 43.7C571.7 49.3 714.3 47.7 857.2 39.2C1000 30.7 1143 15.3 1285.8 7.7C1428.7 0 1571.3 0 1714.2 8.8C1857 17.7 2000 35.3 2142.8 41.3C2285.7 47.3 2428.3 41.7 2571.2 33.8C2714 26 2857 16 2928.5 11L3000 6L3000 0L2928.5 0C2857 0 2714 0 2571.2 0C2428.3 0 2285.7 0 2142.8 0C2000 0 1857 0 1714.2 0C1571.3 0 1428.7 0 1285.8 0C1143 0 1000 0 857.2 0C714.3 0 571.7 0 428.8 0C286 0 143 0 71.5 0L0 0Z" fill="#ee0979" stroke-linecap="round" stroke-linejoin="miter"></path></svg>