<svg id="visual" viewBox="0 0 1200 300" width="1200" height="300" xmlns="http://www.w3.org/2000/svg" xmlns:xlink="http://www.w3.org/1999/xlink" version="1.1"><rect x="0" y="0" width="1200" height="300" fill="#100e19"></rect><path d="M0 169L50 158.8C100 148.7 200 128.3 300 127.2C400 126 500 144 600 157.2C700 170.3 800 178.7 900 169.8C1000 161 1100 135 1150 122L1200 109L1200 301L1150 301C1100 301 1000 301 900 301C800 301 700 301 600 301C500 301 400 301 300 301C200 301 100 301 50 301L0 301Z" fill="#f6f5f9" stroke-linecap="round" stroke-linejoin="miter"></path></svg>