<svg id="visual" viewBox="0 0 1200 300" width="1200" height="300" xmlns="http://www.w3.org/2000/svg" xmlns:xlink="http://www.w3.org/1999/xlink" version="1.1"><rect x="0" y="0" width="1200" height="300" fill="#f6f5f9"></rect><path d="M0 57L33.3 59.7C66.7 62.3 133.3 67.7 200 58.2C266.7 48.7 333.3 24.3 400 18.2C466.7 12 533.3 24 600 37.5C666.7 51 733.3 66 800 73.2C866.7 80.3 933.3 79.7 1000 66.8C1066.7 54 1133.3 29 1166.7 16.5L1200 4L1200 0L1166.7 0C1133.3 0 1066.7 0 1000 0C933.3 0 866.7 0 800 0C733.3 0 666.7 0 600 0C533.3 0 466.7 0 400 0C333.3 0 266.7 0 200 0C133.3 0 66.7 0 33.3 0L0 0Z" fill="#ee0979" stroke-linecap="round" stroke-linejoin="miter"></path></svg>