<svg id="visual" viewBox="0 0 1200 600" width="1200" height="600" xmlns="http://www.w3.org/2000/svg" xmlns:xlink="http://www.w3.org/1999/xlink" version="1.1"><rect x="0" y="0" width="1200" height="600" fill="#100e19"></rect><path d="M0 338L50 317.7C100 297.3 200 256.7 300 254.5C400 252.3 500 288.7 600 315.3C700 342 800 359 900 341.2C1000 323.3 1100 270.7 1150 244.3L1200 218L1200 601L1150 601C1100 601 1000 601 900 601C800 601 700 601 600 601C500 601 400 601 300 601C200 601 100 601 50 601L0 601Z" fill="#f6f5f9" stroke-linecap="round" stroke-linejoin="miter"></path></svg>